<svg width="40" height="40" viewBox="0 0 40 40" fill="none" xmlns="http://www.w3.org/2000/svg">
<g clip-path="url(#clip0)">
<path d="M20.0158 40C19.9317 40 19.8475 40 19.7739 40C16.7347 39.9579 13.6956 39.2213 10.9824 37.8533C10.3304 37.5271 10.078 36.7378 10.404 36.0854C10.73 35.433 11.5187 35.1804 12.1707 35.5066C14.5263 36.6957 17.1764 37.3482 19.8054 37.3797C22.5607 37.4113 25.2318 36.801 27.7241 35.5593C36.2948 31.2974 39.8072 20.848 35.5481 12.2717C31.2891 3.69533 20.8466 0.180622 12.2759 4.44247C3.70521 8.70434 0.192811 19.1433 4.45186 27.7301C4.77786 28.3825 4.51496 29.1717 3.86295 29.498C3.21095 29.8241 2.42224 29.5506 2.09624 28.9087C-0.280417 24.1207 -0.648483 18.7013 1.05514 13.6397C2.75875 8.57803 6.32374 4.46352 11.1086 2.0853C20.9833 -2.81845 33.0033 1.22241 37.9038 11.1036C40.2804 15.8916 40.6485 21.311 38.9449 26.3726C37.2412 31.4342 33.6763 35.5382 28.8914 37.9164C26.0941 39.295 23.1075 40 20.0158 40Z" fill="white"/>
<path d="M19.9738 31.6025C17.6813 31.6025 15.4413 30.9185 13.4958 29.6031C10.9299 27.8668 9.19472 25.236 8.60584 22.1949C8.25879 20.3744 8.55323 18.6486 8.80564 17.5016C8.9634 16.7965 9.66794 16.344 10.3726 16.5019C11.0771 16.6597 11.5293 17.3648 11.3716 18.0698C11.0456 19.5431 10.993 20.6585 11.1928 21.6898C11.645 24.0469 12.9911 26.0779 14.9681 27.4248C16.9452 28.7718 19.3429 29.2559 21.6879 28.8033C24.0435 28.3509 26.0732 27.0039 27.4193 25.0151C28.7653 23.0262 29.249 20.6375 28.7968 18.2908C28.3447 15.9337 26.9986 13.9027 25.0111 12.5557C23.0235 11.2088 20.6363 10.7247 18.2912 11.1772C17.3763 11.3561 16.4825 11.7349 15.3888 12.3979C14.7683 12.7767 13.9585 12.5768 13.5799 11.9559C13.2014 11.335 13.4012 10.5248 14.0216 10.1459C14.8734 9.63027 16.1985 8.90423 17.797 8.5885C20.8361 7.99921 23.9279 8.6306 26.4938 10.3669C29.0597 12.1032 30.7949 14.734 31.3838 17.7751C31.9728 20.8164 31.3418 23.9101 29.5961 26.4778C27.8504 29.0454 25.2319 30.7817 22.1927 31.371C21.4566 31.5394 20.7099 31.6025 19.9738 31.6025Z" fill="white"/>
<path d="M19.9949 26.2359C23.439 26.2359 26.231 23.4421 26.231 19.9957C26.231 16.5494 23.439 13.7555 19.9949 13.7555C16.5508 13.7555 13.7588 16.5494 13.7588 19.9957C13.7588 23.4421 16.5508 26.2359 19.9949 26.2359Z" fill="#E3BA6B"/>
<path d="M20.1103 35.8117C18.0176 35.8117 15.8933 35.3908 13.8531 34.5068C11.2557 33.3809 8.96311 31.4762 7.02813 28.8349C6.29203 27.8352 5.70313 26.7724 5.26145 25.6674C4.97751 24.9624 5.32455 24.1731 6.01861 23.8891C6.7232 23.6049 7.51193 23.9522 7.79586 24.6467C8.15342 25.5306 8.63715 26.3936 9.22603 27.2038C10.8981 29.4873 12.7595 31.0447 14.9363 31.9919C21.5405 34.8541 29.2488 31.8024 32.1197 25.2044C34.9801 18.5959 31.9304 10.8825 25.3263 8.00969C22.1294 6.62065 18.5749 6.55751 15.3359 7.84135C12.0864 9.12514 9.54156 11.5981 8.14284 14.7971C7.83789 15.4916 7.03871 15.8073 6.34461 15.5022C5.65055 15.1969 5.33506 14.3972 5.64003 13.7027C7.32264 9.83016 10.4039 6.84162 14.3369 5.29474C18.2595 3.73732 22.5605 3.81099 26.42 5.49468C34.4018 8.96731 38.0824 18.2908 34.6226 26.2883C32.0566 32.2444 26.2201 35.8117 20.1103 35.8117Z" fill="white"/>
</g>
<defs>
<clipPath id="clip0">
<rect width="40" height="40" fill="white"/>
</clipPath>
</defs>
</svg>
