<svg width="300" height="28" fill="none" xmlns="http://www.w3.org/2000/svg"><path d="M.5 14A3.5 3.5 0 014 10.5h259.5v7H4A3.5 3.5 0 01.5 14z" fill="#EFBB69"/><path d="M.5 14A3.5 3.5 0 014 10.5h259.5v7H4A3.5 3.5 0 01.5 14z" fill="url(#paint0_linear)"/><path d="M.5 14A3.5 3.5 0 014 10.5h259.5v7H4A3.5 3.5 0 01.5 14zM264.5 10.5H296a3.5 3.5 0 110 7h-31.5v-7z" stroke="#fff"/><circle cx="263" cy="14" r="14" fill="#fff"/><circle cx="263" cy="14" r="10" fill="#fff"/><circle cx="263" cy="14" r="7" fill="#EFBB69"/><path fill="#EFBB69" d="M247 11h12v6h-12z"/><defs><linearGradient id="paint0_linear" x1="0" y1="14" x2="264" y2="14" gradientUnits="userSpaceOnUse"><stop stop-color="#fff"/><stop offset="1" stop-color="#fff" stop-opacity="0"/></linearGradient></defs></svg>